<svg width="72" height="72" viewBox="0 0 72 72" fill="none" xmlns="http://www.w3.org/2000/svg">
<g clip-path="url(#clip0_96_10239)">
<mask id="mask0_96_10239" style="mask-type:luminance" maskUnits="userSpaceOnUse" x="0" y="0" width="72" height="72">
<path d="M0 0H72V72H0V0Z" fill="white"/>
</mask>
<g mask="url(#mask0_96_10239)">
<path d="M63 36C63 39.5457 62.3016 43.0567 60.9447 46.3325C59.5879 49.6082 57.5991 52.5847 55.0919 55.0919C52.5847 57.5991 49.6082 59.5879 46.3325 60.9447C43.0567 62.3016 39.5457 63 36 63C32.4543 63 28.9433 62.3016 25.6675 60.9447C22.3918 59.5879 19.4153 57.5991 16.9081 55.0919C14.4009 52.5847 12.4121 49.6082 11.0553 46.3325C9.69838 43.0567 9 39.5457 9 36C9 28.8392 11.8446 21.9716 16.9081 16.9081C21.9716 11.8446 28.8392 9 36 9C43.1608 9 50.0284 11.8446 55.0919 16.9081C60.1554 21.9716 63 28.8392 63 36Z" fill="#58A700"/>
<path fill-rule="evenodd" clip-rule="evenodd" d="M36 12C29.6348 12 23.5303 14.5286 19.0294 19.0294C14.5286 23.5303 12 29.6348 12 36C12 42.3652 14.5286 48.4697 19.0294 52.9706C23.5303 57.4714 29.6348 60 36 60C42.3652 60 48.4697 57.4714 52.9706 52.9706C57.4714 48.4697 60 42.3652 60 36C60 29.6348 57.4714 23.5303 52.9706 19.0294C48.4697 14.5286 42.3652 12 36 12ZM6 36C6 19.431 19.431 6 36 6C52.569 6 66 19.431 66 36C66 52.569 52.569 66 36 66C19.431 66 6 52.569 6 36Z" fill="#58A700"/>
<path fill-rule="evenodd" clip-rule="evenodd" d="M47.1212 27.879C47.6837 28.4416 47.9996 29.2045 47.9996 30C47.9996 30.7955 47.6837 31.5584 47.1212 32.121L35.1212 44.121C34.5587 44.6834 33.7957 44.9993 33.0002 44.9993C32.2048 44.9993 31.4418 44.6834 30.8792 44.121L24.8792 38.121C24.5927 37.8442 24.3642 37.5132 24.2069 37.1472C24.0497 36.7812 23.967 36.3875 23.9635 35.9892C23.96 35.5908 24.0359 35.1958 24.1868 34.8271C24.3376 34.4584 24.5604 34.1235 24.8421 33.8418C25.1237 33.5601 25.4587 33.3373 25.8274 33.1865C26.1961 33.0357 26.5911 32.9598 26.9894 32.9632C27.3878 32.9667 27.7814 33.0494 28.1475 33.2067C28.5135 33.3639 28.8445 33.5924 29.1212 33.879L31.9412 36.699C32.2225 36.9802 32.604 37.1382 33.0017 37.1382C33.3995 37.1382 33.781 36.9802 34.0622 36.699L42.8792 27.879C43.4418 27.3166 44.2047 27.0006 45.0002 27.0006C45.7957 27.0006 46.5587 27.3166 47.1212 27.879Z" fill="white"/>
</g>
</g>
<defs>
<clipPath id="clip0_96_10239">
<rect width="72" height="72" fill="white"/>
</clipPath>
</defs>
</svg>
