<svg width="32" height="25" viewBox="0 0 32 25" fill="none" xmlns="http://www.w3.org/2000/svg">
<path d="M28.9464 0.509644H3.55392C2.06274 0.509644 0.846191 1.72625 0.846191 3.22045V21.2925C0.846191 22.7816 2.05733 24.0033 3.55392 24.0033H28.9464C30.4338 24.0033 31.6541 22.7907 31.6541 21.2925V3.22045C31.6541 1.73131 30.443 0.509644 28.9464 0.509644ZM16.2921 2.31684C20.8261 2.31684 23.0981 7.79747 19.8939 11.0053C17.9114 12.9901 14.6968 12.997 12.7058 11.0208C9.4803 7.81933 11.7475 2.31684 16.2921 2.31684ZM8.79434 14.7683C6.52854 17.0366 2.65134 15.4319 2.65134 12.2258C2.65134 9.02712 6.51312 7.41906 8.78337 9.67239C10.1967 11.0752 10.2017 13.3594 8.79434 14.7683ZM12.6378 22.1961C9.42196 22.1961 7.81055 18.3089 10.0832 16.0337C11.4893 14.626 13.7692 14.621 15.1813 16.0227L15.6749 16.5125C16.0277 16.8628 16.5971 16.8616 16.9486 16.5098L17.3831 16.0748C18.784 14.6722 21.0572 14.6722 22.4582 16.0748C24.7156 18.3348 23.115 22.1961 19.9206 22.1961H12.6378ZM29.8489 12.2564C29.8489 15.4513 25.9854 17.0503 23.7276 14.7899C22.3296 13.3903 22.3296 11.1226 23.7276 9.72296C25.9854 7.46259 29.8489 9.06162 29.8489 12.2564Z" fill="#868889"/>
</svg>
