<svg width="50" height="50" viewBox="0 0 50 50" fill="none" xmlns="http://www.w3.org/2000/svg">
<circle cx="25" cy="25" r="25" fill="#FFE3E2"/>
<g clip-path="url(#clip0_882_15287)">
<path d="M34.8438 27.3438H35.7812V28.2812H34.8438V27.3438ZM34.8438 31.0938H35.7812V32.0312H34.8438V31.0938ZM34.8438 34.8438H35.7812V35.7812H34.8438V34.8438Z" fill="#28B446"/>
<path d="M38.5938 23.5938H36.4923C36.2532 22.4967 35.7351 21.4799 34.9881 20.6416C34.6584 20.2689 34.2637 19.9592 33.8233 19.7275C34.2598 19.4262 34.6168 19.0234 34.8634 18.5538C35.1101 18.0842 35.2391 17.5617 35.2394 17.0312V16.5625H32.8956C31.7013 16.5625 30.6573 17.2061 30.0831 18.1623V17.0312C30.0831 15.9972 30.9241 15.1562 31.9581 15.1562V14.2188C30.407 14.2188 29.1456 15.4802 29.1456 17.0312V19.6323C28.4654 19.3843 27.7266 19.3452 27.0239 19.5201C26.3213 19.695 25.687 20.0759 25.2025 20.6139C25.082 20.748 24.9691 20.8872 24.8608 21.0297L24.9016 20.8342C24.9667 20.5202 25 20.1981 25 19.8438C25 19.217 24.8739 18.5966 24.6292 18.0196C24.3844 17.4426 24.0261 16.9208 23.5755 16.4852L25.2189 14.0664C25.3346 13.8952 25.4125 13.7012 25.4473 13.4975C25.4821 13.2937 25.4731 13.0849 25.4208 12.885C25.3685 12.685 25.2741 12.4985 25.144 12.338C25.0139 12.1774 24.851 12.0464 24.6663 11.9538L24.5491 11.8952C24.2027 11.7217 23.8094 11.6936 23.4414 11.8164C23.2322 11.8857 23.0416 12.0017 22.8841 12.1557C22.7265 12.3097 22.6061 12.4976 22.532 12.7052L21.5763 15.3339C21.5113 15.3156 21.446 15.2987 21.3803 15.2833L21.7113 11.9697C21.7304 11.7802 21.7097 11.5888 21.6504 11.4078C21.5911 11.2268 21.4946 11.0603 21.367 10.9189C21.2394 10.7775 21.0836 10.6644 20.9097 10.5869C20.7357 10.5093 20.5475 10.4691 20.357 10.4688H20.2684C20.0782 10.469 19.8902 10.5091 19.7163 10.5863C19.5425 10.6636 19.3868 10.7764 19.2592 10.9174C19.1315 11.0585 19.0348 11.2247 18.9753 11.4053C18.9157 11.586 18.8946 11.7771 18.9133 11.9664L19.2447 15.2842C19.1786 15.2997 19.1134 15.3166 19.0488 15.3348L18.0934 12.7066C18.0734 12.6512 18.05 12.597 18.0236 12.5444C17.9387 12.3736 17.8208 12.2213 17.6767 12.0963C17.5326 11.9714 17.3652 11.8762 17.1841 11.8164C17.0034 11.7556 16.8125 11.7312 16.6223 11.7447C16.4322 11.7582 16.2466 11.8094 16.0764 11.8952L15.9592 11.9538C15.7746 12.0466 15.6118 12.1778 15.4819 12.3385C15.3519 12.4992 15.2576 12.6858 15.2054 12.8858C15.1532 13.0858 15.1443 13.2946 15.1791 13.4984C15.2139 13.7021 15.2918 13.8961 15.4075 14.0673L17.0519 16.4875C16.4824 17.0415 16.0621 17.7304 15.83 18.4902C15.5978 19.25 15.5613 20.0561 15.7239 20.8337L16.2991 23.5938H15.625C15.108 23.5938 14.6875 24.0142 14.6875 24.5312V24.5688C14.5323 24.5451 14.3757 24.5326 14.2188 24.5312H11.875V25C11.8753 25.5305 12.0043 26.0529 12.251 26.5225C12.4976 26.9922 12.8545 27.3949 13.2911 27.6962C12.8504 27.9277 12.4557 28.2376 12.1263 28.6108C11.0578 29.8109 10.4679 31.3619 10.4688 32.9688C10.4688 34.7697 11.1836 36.4492 12.4816 37.6984C13.1169 38.3141 13.8712 38.7937 14.6982 39.108C15.5251 39.4223 16.4075 39.5647 17.2914 39.5266C18.9597 39.4623 20.477 38.7578 21.6053 37.6567H35.3125C36.6048 37.6567 37.6563 36.6053 37.6563 35.313V26.4062H38.5938C39.1108 26.4062 39.5313 25.9858 39.5313 25.4688V24.5312C39.5313 24.0142 39.1108 23.5938 38.5938 23.5938ZM32.8956 17.5H34.2545C34.1458 18.0289 33.858 18.5042 33.4397 18.8458C33.0214 19.1873 32.4981 19.3742 31.9581 19.375H30.5992C30.7079 18.846 30.9957 18.3707 31.414 18.0291C31.8323 17.6876 32.3556 17.5007 32.8956 17.5ZM25.8991 21.2406C26.6627 20.3922 27.9259 20.1123 28.9713 20.5595C29.0275 20.5834 29.087 20.6022 29.1456 20.6223V21.6231C28.6802 21.4497 28.2381 21.0845 28.0703 20.9177L27.408 21.5814C27.5177 21.6916 28.5142 22.6562 29.6144 22.6562C30.7145 22.6562 31.7111 21.6916 31.8208 21.5814L31.1584 20.9177C30.9906 21.0841 30.5486 21.4492 30.0831 21.6231V20.3125H31.9581C32.117 20.3125 32.2717 20.2975 32.4245 20.2755C33.0813 20.3223 33.7759 20.6898 34.2878 21.2645C34.8809 21.931 35.306 22.7296 35.5277 23.5938H24.6386C24.8628 22.7192 25.2952 21.9118 25.8991 21.2406ZM23.4133 13.0248C23.4209 13.0038 23.43 12.9833 23.4405 12.9634C23.5019 12.8406 23.6069 12.7492 23.7377 12.7056C23.8689 12.662 24.0072 12.6723 24.13 12.7337L24.2472 12.7923C24.3127 12.8251 24.3704 12.8714 24.4166 12.9283C24.4627 12.9851 24.4961 13.0512 24.5147 13.1221C24.5332 13.1929 24.5363 13.2669 24.5239 13.339C24.5115 13.4112 24.4838 13.4799 24.4427 13.5405L22.8386 15.9011C22.7124 15.8199 22.5824 15.7449 22.4491 15.6761L23.4133 13.0248ZM19.8438 11.8305C19.8438 11.5966 20.0341 11.4062 20.268 11.4062H20.3566C20.5905 11.4062 20.7808 11.5966 20.7784 11.8727L20.4494 15.1633C20.4039 15.1619 20.3589 15.1562 20.3125 15.1562C20.2661 15.1562 20.2211 15.1619 20.1752 15.1633L19.8438 11.8305ZM16.1833 13.5419C16.142 13.4813 16.1141 13.4126 16.1015 13.3403C16.0889 13.268 16.0919 13.1939 16.1104 13.1229C16.1288 13.0519 16.1622 12.9857 16.2083 12.9287C16.2544 12.8717 16.3122 12.8252 16.3778 12.7923L16.495 12.7337C16.6173 12.6728 16.7566 12.662 16.8873 12.7056C16.9623 12.7306 17.0305 12.7725 17.0868 12.8279C17.1431 12.8833 17.186 12.9508 17.2122 13.0253L18.1764 15.677C18.0432 15.7457 17.9133 15.8208 17.7873 15.902L16.1833 13.5419ZM20.3125 16.0938C22.3802 16.0938 24.0625 17.7761 24.0625 19.8775C24.0625 20.1339 24.0358 20.3913 23.9838 20.6425L23.3688 23.5938H18.1478C18.4773 23.3055 18.9034 23.125 19.375 23.125V22.1875C18.9539 22.1876 18.5382 22.2825 18.1587 22.4651C17.7792 22.6476 17.4456 22.9132 17.1827 23.2422L16.6408 20.6425C16.5873 20.3796 16.5611 20.112 16.5625 19.8438C16.5625 17.7761 18.2448 16.0938 20.3125 16.0938ZM15.625 24.5312H16.6047C16.5789 24.6841 16.5625 24.8402 16.5625 25V25.5208C16.2917 25.2447 15.9744 25.0186 15.625 24.8528V24.5312ZM14.2188 25.4688C14.7588 25.4695 15.2821 25.6563 15.7004 25.9979C16.1187 26.3394 16.4065 26.8148 16.5152 27.3438H15.1563C14.6162 27.343 14.0929 27.1562 13.6746 26.8146C13.2563 26.4731 12.9685 25.9977 12.8598 25.4688H14.2188ZM17.2553 38.5895C15.7 38.6453 14.2441 38.0927 13.1317 37.0225C12.584 36.4993 12.1486 35.8701 11.8519 35.1731C11.5553 34.4762 11.4036 33.7262 11.4063 32.9688C11.4055 31.5916 11.9108 30.2622 12.8261 29.2333C13.338 28.6581 14.0327 28.2906 14.6898 28.2442C14.8427 28.2663 14.9973 28.2812 15.1563 28.2812H16.5625V29.5919C16.097 29.4184 15.655 29.0533 15.4872 28.8864L14.8248 29.5502C14.9345 29.6603 15.9311 30.625 17.0313 30.625C18.1314 30.625 19.128 29.6603 19.2377 29.5502L18.5753 28.8864C18.4075 29.0528 17.9655 29.418 17.5 29.5919V28.7092C17.721 28.6754 17.937 28.6147 18.1431 28.5283C19.188 28.0802 20.4517 28.3614 21.2148 29.2094C22.2043 30.3059 22.7204 31.7489 22.6506 33.2242C22.5227 36.1211 20.1522 38.4775 17.2553 38.5895ZM23.5863 32.9688C23.5901 31.9965 23.3768 31.0356 22.9619 30.1562H36.7188V32.9688H23.5863ZM35.3125 36.7188H22.4045C22.9941 35.8823 23.3784 34.9188 23.5263 33.9062H36.7188V35.3125C36.7188 36.0878 36.0878 36.7188 35.3125 36.7188ZM38.5938 25.4688H36.7188V29.2188H22.4102C22.2573 28.9967 22.0909 28.7843 21.9119 28.5827C21.4041 28.0173 20.7322 27.625 19.9903 27.4607C19.2484 27.2964 18.4736 27.3685 17.7747 27.6667C17.6856 27.7018 17.5939 27.7299 17.5005 27.7506V26.4062H35.7817V25.4688H17.5V25C17.5 24.8373 17.5272 24.6822 17.5666 24.5312H38.5938V25.4688Z" fill="#28B446"/>
<path d="M13.2812 32.9688H12.3438C12.3438 35.5534 14.4466 37.6562 17.0312 37.6562V36.7188C14.9636 36.7188 13.2812 35.0364 13.2812 32.9688ZM21.7188 17.9688H22.6562V18.9062H21.7188V17.9688ZM21.7188 19.8438H22.6562V20.7812H21.7188V19.8438ZM21.7188 21.7188H22.6562V22.6562H21.7188V21.7188Z" fill="#28B446"/>
</g>
<defs>
<clipPath id="clip0_882_15287">
<rect width="30" height="30" fill="white" transform="translate(10 10)"/>
</clipPath>
</defs>
</svg>
