<svg width="50" height="50" viewBox="0 0 50 50" fill="none" xmlns="http://www.w3.org/2000/svg">
<circle cx="25" cy="25" r="25" fill="#F4F5F9"/>
<g clip-path="url(#clip0_882_15289)">
<path d="M30.3922 39.9997H19.5359C18.2845 40.0032 17.0606 39.6322 16.0218 38.9344C14.983 38.2366 14.1766 37.244 13.7065 36.0843L10.969 29.3966C10.9219 29.2815 10.9225 29.1524 10.9705 29.0376C11.0186 28.9229 11.1103 28.832 11.2254 28.7849C11.3406 28.7378 11.4697 28.7383 11.5844 28.7864C11.6991 28.8345 11.79 28.9262 11.8372 29.0413L14.5747 35.7304C14.9749 36.7173 15.6611 37.562 16.5453 38.1557C17.4294 38.7495 18.4709 39.0652 19.5359 39.0622H30.3922C31.469 39.0578 32.5199 38.7311 33.4095 38.1241C34.2991 37.5172 34.9865 36.6579 35.3834 35.6568L37.9709 29.0474C38.0163 28.9316 38.1058 28.8385 38.2198 28.7887C38.3337 28.7389 38.4628 28.7365 38.5786 28.7818C38.6944 28.8272 38.7875 28.9167 38.8373 29.0307C38.8871 29.1447 38.8896 29.2738 38.8442 29.3896L36.2567 35.9985C35.7902 37.1745 34.9825 38.1841 33.9374 38.8972C32.8924 39.6103 31.6573 39.9942 30.3922 39.9997Z" fill="#FBBB00"/>
<path d="M38.6752 29.6875H32.4971C32.3727 29.6875 32.2535 29.6381 32.1656 29.5502C32.0777 29.4623 32.0283 29.3431 32.0283 29.2188C32.0283 29.0944 32.0777 28.9752 32.1656 28.8873C32.2535 28.7994 32.3727 28.75 32.4971 28.75H38.6752C38.7258 28.7505 38.776 28.7409 38.8229 28.7218C38.8697 28.7026 38.9123 28.6743 38.9481 28.6385C38.9839 28.6027 39.0122 28.5602 39.0313 28.5133C39.0505 28.4664 39.0601 28.4162 39.0596 28.3656V27.7281C39.0601 27.6775 39.0505 27.6273 39.0313 27.5804C39.0122 27.5336 38.9839 27.491 38.9481 27.4552C38.9123 27.4194 38.8697 27.3911 38.8229 27.372C38.776 27.3528 38.7258 27.3432 38.6752 27.3438H11.3189C11.2683 27.3432 11.2181 27.3527 11.1712 27.3719C11.1243 27.391 11.0817 27.4193 11.0459 27.4551C11.0101 27.4909 10.9818 27.5335 10.9627 27.5804C10.9436 27.6273 10.934 27.6775 10.9346 27.7281V28.3656C10.934 28.4163 10.9436 28.4665 10.9627 28.5134C10.9818 28.5603 11.0101 28.6029 11.0459 28.6387C11.0817 28.6745 11.1243 28.7028 11.1712 28.7219C11.2181 28.741 11.2683 28.7506 11.3189 28.75H25.9346C26.0589 28.75 26.1781 28.7994 26.266 28.8873C26.3539 28.9752 26.4033 29.0944 26.4033 29.2188C26.4033 29.3431 26.3539 29.4623 26.266 29.5502C26.1781 29.6381 26.0589 29.6875 25.9346 29.6875H11.3189C10.9685 29.6871 10.6325 29.5477 10.3846 29.2999C10.1368 29.0521 9.99744 28.7161 9.99707 28.3656V27.7281C9.99744 27.3777 10.1368 27.0416 10.3846 26.7938C10.6325 26.546 10.9685 26.4066 11.3189 26.4062H38.6752C39.0256 26.4067 39.3616 26.5462 39.6094 26.794C39.8571 27.0418 39.9966 27.3777 39.9971 27.7281V28.3656C39.9966 28.7161 39.8571 29.052 39.6094 29.2998C39.3616 29.5476 39.0256 29.687 38.6752 29.6875ZM16.5596 32.0312H13.7471C13.6228 32.0312 13.5035 31.9819 13.4156 31.894C13.3277 31.806 13.2783 31.6868 13.2783 31.5625C13.2783 31.4382 13.3277 31.319 13.4156 31.231C13.5035 31.1431 13.6228 31.0938 13.7471 31.0938H16.5596C16.6839 31.0938 16.8031 31.1431 16.891 31.231C16.9789 31.319 17.0283 31.4382 17.0283 31.5625C17.0283 31.6868 16.9789 31.806 16.891 31.894C16.8031 31.9819 16.6839 32.0312 16.5596 32.0312ZM23.1221 32.0312H20.3096C20.1853 32.0312 20.066 31.9819 19.9781 31.894C19.8902 31.806 19.8408 31.6868 19.8408 31.5625C19.8408 31.4382 19.8902 31.319 19.9781 31.231C20.066 31.1431 20.1853 31.0938 20.3096 31.0938H23.1221C23.2464 31.0938 23.3656 31.1431 23.4535 31.231C23.5414 31.319 23.5908 31.4382 23.5908 31.5625C23.5908 31.6868 23.5414 31.806 23.4535 31.894C23.3656 31.9819 23.2464 32.0312 23.1221 32.0312ZM28.2783 32.0312H26.8721C26.7477 32.0312 26.6285 31.9819 26.5406 31.894C26.4527 31.806 26.4033 31.6868 26.4033 31.5625C26.4033 31.4382 26.4527 31.319 26.5406 31.231C26.6285 31.1431 26.7477 31.0938 26.8721 31.0938H28.2783C28.4026 31.0938 28.5219 31.1431 28.6098 31.231C28.6977 31.319 28.7471 31.4382 28.7471 31.5625C28.7471 31.6868 28.6977 31.806 28.6098 31.894C28.5219 31.9819 28.4026 32.0312 28.2783 32.0312ZM36.1425 32.0317H33.4336C33.3093 32.0317 33.1901 31.9823 33.1022 31.8944C33.0143 31.8065 32.9649 31.6873 32.9649 31.563C32.9649 31.4386 33.0143 31.3194 33.1022 31.2315C33.1901 31.1436 33.3093 31.0942 33.4336 31.0942H36.143C36.2673 31.0942 36.3866 31.1436 36.4745 31.2315C36.5624 31.3194 36.6118 31.4386 36.6118 31.563C36.6118 31.6873 36.5624 31.8065 36.4745 31.8944C36.3866 31.9823 36.2669 32.0317 36.1425 32.0317ZM19.8408 33.9062H17.0283C16.904 33.9062 16.7848 33.8569 16.6969 33.769C16.609 33.681 16.5596 33.5618 16.5596 33.4375C16.5596 33.3132 16.609 33.194 16.6969 33.106C16.7848 33.0181 16.904 32.9688 17.0283 32.9688H19.8408C19.9651 32.9688 20.0844 33.0181 20.1723 33.106C20.2602 33.194 20.3096 33.3132 20.3096 33.4375C20.3096 33.5618 20.2602 33.681 20.1723 33.769C20.0844 33.8569 19.9651 33.9062 19.8408 33.9062ZM26.4033 33.9062H23.5908C23.4665 33.9062 23.3473 33.8569 23.2594 33.769C23.1715 33.681 23.1221 33.5618 23.1221 33.4375C23.1221 33.3132 23.1715 33.194 23.2594 33.106C23.3473 33.0181 23.4665 32.9688 23.5908 32.9688H26.4033C26.5276 32.9688 26.6469 33.0181 26.7348 33.106C26.8227 33.194 26.8721 33.3132 26.8721 33.4375C26.8721 33.5618 26.8227 33.681 26.7348 33.769C26.6469 33.8569 26.5276 33.9062 26.4033 33.9062ZM32.9658 33.9062H30.1533C30.029 33.9062 29.9098 33.8569 29.8219 33.769C29.734 33.681 29.6846 33.5618 29.6846 33.4375C29.6846 33.3132 29.734 33.194 29.8219 33.106C29.9098 33.0181 30.029 32.9688 30.1533 32.9688H32.9658C33.0901 32.9688 33.2094 33.0181 33.2973 33.106C33.3852 33.194 33.4346 33.3132 33.4346 33.4375C33.4346 33.5618 33.3852 33.681 33.2973 33.769C33.2094 33.8569 33.0901 33.9062 32.9658 33.9062ZM16.5596 35.7812H13.8971C13.7727 35.7812 13.6535 35.7319 13.5656 35.644C13.4777 35.556 13.4283 35.4368 13.4283 35.3125C13.4283 35.1882 13.4777 35.069 13.5656 34.981C13.6535 34.8931 13.7727 34.8438 13.8971 34.8438H16.5596C16.6839 34.8438 16.8031 34.8931 16.891 34.981C16.9789 35.069 17.0283 35.1882 17.0283 35.3125C17.0283 35.4368 16.9789 35.556 16.891 35.644C16.8031 35.7319 16.6839 35.7812 16.5596 35.7812ZM23.1221 35.7803H20.3096C20.1853 35.7803 20.066 35.7309 19.9781 35.643C19.8902 35.5551 19.8408 35.4359 19.8408 35.3116C19.8408 35.1872 19.8902 35.068 19.9781 34.9801C20.066 34.8922 20.1853 34.8428 20.3096 34.8428H23.1221C23.2464 34.8428 23.3656 34.8922 23.4535 34.9801C23.5414 35.068 23.5908 35.1872 23.5908 35.3116C23.5908 35.4359 23.5414 35.5551 23.4535 35.643C23.3656 35.7309 23.2464 35.7803 23.1221 35.7803ZM29.6846 35.7803H26.8721C26.7477 35.7803 26.6285 35.7309 26.5406 35.643C26.4527 35.5551 26.4033 35.4359 26.4033 35.3116C26.4033 35.1872 26.4527 35.068 26.5406 34.9801C26.6285 34.8922 26.7477 34.8428 26.8721 34.8428H29.6846C29.8089 34.8428 29.9281 34.8922 30.016 34.9801C30.1039 35.068 30.1533 35.1872 30.1533 35.3116C30.1533 35.4359 30.1039 35.5551 30.016 35.643C29.9281 35.7309 29.8089 35.7803 29.6846 35.7803ZM36.0221 35.7812H33.4346C33.3102 35.7812 33.191 35.7319 33.1031 35.644C33.0152 35.556 32.9658 35.4368 32.9658 35.3125C32.9658 35.1882 33.0152 35.069 33.1031 34.981C33.191 34.8931 33.3102 34.8438 33.4346 34.8438H36.0221C36.1464 34.8438 36.2656 34.8931 36.3535 34.981C36.4414 35.069 36.4908 35.1882 36.4908 35.3125C36.4908 35.4368 36.4414 35.556 36.3535 35.644C36.2656 35.7319 36.1464 35.7812 36.0221 35.7812ZM19.8404 37.6562H17.0279C16.9035 37.6562 16.7843 37.6069 16.6964 37.519C16.6085 37.431 16.5591 37.3118 16.5591 37.1875C16.5591 37.0632 16.6085 36.944 16.6964 36.856C16.7843 36.7681 16.9035 36.7188 17.0279 36.7188H19.8404C19.9647 36.7188 20.0839 36.7681 20.1718 36.856C20.2597 36.944 20.3091 37.0632 20.3091 37.1875C20.3091 37.3118 20.2597 37.431 20.1718 37.519C20.0839 37.6069 19.9647 37.6562 19.8404 37.6562ZM26.4029 37.6562H23.5904C23.466 37.6562 23.3468 37.6069 23.2589 37.519C23.171 37.431 23.1216 37.3118 23.1216 37.1875C23.1216 37.0632 23.171 36.944 23.2589 36.856C23.3468 36.7681 23.466 36.7188 23.5904 36.7188H26.4029C26.5272 36.7188 26.6464 36.7681 26.7343 36.856C26.8222 36.944 26.8716 37.0632 26.8716 37.1875C26.8716 37.3118 26.8222 37.431 26.7343 37.519C26.6464 37.6069 26.5272 37.6562 26.4029 37.6562ZM32.9654 37.6562H30.1529C30.0285 37.6562 29.9093 37.6069 29.8214 37.519C29.7335 37.431 29.6841 37.3118 29.6841 37.1875C29.6841 37.0632 29.7335 36.944 29.8214 36.856C29.9093 36.7681 30.0285 36.7188 30.1529 36.7188H32.9654C33.0897 36.7188 33.2089 36.7681 33.2968 36.856C33.3847 36.944 33.4341 37.0632 33.4341 37.1875C33.4341 37.3118 33.3847 37.431 33.2968 37.519C33.2089 37.6069 33.0897 37.6562 32.9654 37.6562Z" fill="#FBBB00"/>
<path d="M29.2151 32.9688C29.1535 32.9688 29.0926 32.9567 29.0357 32.9331C28.9788 32.9096 28.9272 32.875 28.8837 32.8314L23.2587 27.2064C23.2139 27.1632 23.1782 27.1114 23.1537 27.0543C23.1291 26.9971 23.1162 26.9356 23.1156 26.8733C23.1151 26.8111 23.1269 26.7494 23.1505 26.6917C23.1741 26.6341 23.2089 26.5818 23.2529 26.5378C23.2969 26.4938 23.3492 26.459 23.4068 26.4354C23.4645 26.4118 23.5262 26.4 23.5884 26.4005C23.6507 26.4011 23.7122 26.414 23.7694 26.4385C23.8265 26.4631 23.8783 26.4988 23.9215 26.5436L29.2151 31.8372L34.5092 26.5436C34.5524 26.4988 34.6041 26.4631 34.6613 26.4385C34.7185 26.414 34.78 26.4011 34.8423 26.4005C34.9045 26.4 34.9662 26.4118 35.0238 26.4354C35.0814 26.459 35.1338 26.4938 35.1778 26.5378C35.2218 26.5818 35.2566 26.6341 35.2802 26.6917C35.3037 26.7494 35.3156 26.8111 35.3151 26.8733C35.3145 26.9356 35.3016 26.9971 35.277 27.0543C35.2525 27.1114 35.2168 27.1632 35.172 27.2064L29.547 32.8314C29.5035 32.8751 29.4517 32.9097 29.3948 32.9332C29.3378 32.9568 29.2768 32.9689 29.2151 32.9688ZM11.3234 27.3288C11.2243 27.3304 11.1276 27.2991 11.0483 27.2397C10.969 27.1803 10.9118 27.0962 10.8856 27.0006L10.8762 26.9678C10.8693 26.9418 10.8644 26.9153 10.8617 26.8886C10.79 26.1667 10.7131 25.4439 10.6371 24.7216L10.5237 23.6425L10.9845 23.5403L10.5176 23.5891C10.5154 23.5601 10.5088 23.5316 10.4979 23.5047C10.4956 23.5 10.481 23.4592 10.4782 23.4541C10.2737 23.1621 10.1314 22.8311 10.0602 22.4818C9.98899 22.1324 9.99039 21.7722 10.0643 21.4234C10.6067 19.4734 13.82 19.375 14.4593 19.375H21.9171C22.0427 19.3745 22.1634 19.4233 22.2533 19.511C22.3432 19.5987 22.395 19.7182 22.3976 19.8438C22.3989 19.9047 22.3881 19.9653 22.3657 20.022C22.3434 20.0787 22.3099 20.1303 22.2674 20.174C22.2248 20.2176 22.174 20.2523 22.1179 20.2761C22.0618 20.2999 22.0015 20.3123 21.9406 20.3125H14.4593C13.3826 20.3125 11.2676 20.5961 10.9685 21.6705C10.8984 22.1256 11.0095 22.5901 11.2779 22.9642C11.3259 23.0402 11.3628 23.1226 11.3876 23.2089C11.4189 23.2939 11.4391 23.3826 11.4476 23.4728L11.4523 23.515L11.5695 24.6236C11.6462 25.3437 11.7209 26.064 11.7935 26.7845C11.8091 26.8978 11.7838 27.0128 11.7223 27.1092C11.6609 27.2055 11.5671 27.2768 11.4579 27.3105C11.4141 27.3226 11.3689 27.3287 11.3234 27.3288Z" fill="#FBBB00"/>
<path d="M25.4096 24.0625H10.9346C10.8103 24.0625 10.691 24.0131 10.6031 23.9252C10.5152 23.8373 10.4658 23.7181 10.4658 23.5938C10.4658 23.4694 10.5152 23.3502 10.6031 23.2623C10.691 23.1744 10.8103 23.125 10.9346 23.125H25.4096C25.5339 23.125 25.6531 23.1744 25.741 23.2623C25.8289 23.3502 25.8783 23.4694 25.8783 23.5938C25.8783 23.7181 25.8289 23.8373 25.741 23.9252C25.6531 24.0131 25.5339 24.0625 25.4096 24.0625Z" fill="#FBBB00"/>
<path d="M18.7691 27.3278C18.6586 27.3305 18.5509 27.2924 18.4666 27.2208C18.3824 27.1493 18.3274 27.0492 18.3121 26.9397L18.3074 26.9069L17.9629 23.642L18.4236 23.5403L17.9572 23.5891C17.9541 23.5416 17.9396 23.4957 17.9151 23.455C17.7088 23.163 17.5658 22.8311 17.4951 22.4806C17.4244 22.1302 17.4276 21.7688 17.5044 21.4197C17.7501 20.5333 18.6154 19.9014 20.0061 19.5925C20.6342 19.4554 21.2745 19.3825 21.9172 19.375C22.0194 19.375 22.3058 19.3778 22.6926 19.4148C24.1349 19.5494 25.9391 20.0064 26.3343 21.4188C26.3474 21.463 26.3574 21.5081 26.3643 21.5538C26.4604 22.1076 26.3599 22.6777 26.0802 23.1653C26.0636 23.1956 26.046 23.2253 26.0272 23.2544C25.9965 23.3013 25.9697 23.3507 25.9471 23.402C25.9163 23.4719 25.8929 23.5448 25.8772 23.6195L25.5332 26.882L25.0626 26.875L24.5966 26.8244L24.9538 23.463C24.982 23.313 25.0268 23.1666 25.0874 23.0266C25.1288 22.9331 25.1774 22.843 25.2327 22.757C25.4212 22.4502 25.4958 22.0868 25.4436 21.7305L25.8908 21.5758L25.4352 21.6836C25.1563 20.6894 23.3629 20.4189 22.6049 20.3481C22.258 20.3153 22.0086 20.3125 21.9407 20.3125C21.3591 20.3179 20.7796 20.3833 20.2115 20.5075C19.4901 20.6669 18.5938 20.9988 18.4082 21.67C18.3688 21.8966 18.376 22.1289 18.4293 22.3526C18.4827 22.5763 18.5811 22.7868 18.7185 22.9713C18.8116 23.1233 18.8692 23.2944 18.8868 23.4719L18.8915 23.515L19.2383 26.7934C19.2518 26.9174 19.217 27.0418 19.141 27.1407C19.065 27.2395 18.9538 27.3052 18.8305 27.3241C18.8101 27.3264 18.7896 27.3277 18.7691 27.3278Z" fill="#FBBB00"/>
<path d="M19.9064 20.3122C19.8448 20.3123 19.7839 20.3002 19.727 20.2766C19.6701 20.253 19.6185 20.2185 19.575 20.1749L15.7969 16.3967C15.448 16.0493 15.1712 15.6364 14.9824 15.1817C14.7935 14.727 14.6963 14.2395 14.6963 13.7471C14.6963 13.2548 14.7935 12.7673 14.9824 12.3126C15.1712 11.8579 15.448 11.445 15.7969 11.0975C16.1447 10.7494 16.5577 10.4733 17.0123 10.2849C17.4669 10.0965 17.9542 9.99951 18.4463 9.99951C18.9383 9.99951 19.4256 10.0965 19.8802 10.2849C20.3348 10.4733 20.7478 10.7494 21.0956 11.0975L22.6298 12.6327C22.644 12.6437 22.6575 12.6556 22.6702 12.6683L28.2769 18.275C28.3622 18.3636 28.4092 18.482 28.408 18.6049C28.4068 18.7278 28.3573 18.8454 28.2703 18.9321C28.1832 19.0189 28.0656 19.0681 27.9427 19.069C27.8198 19.0698 27.7014 19.0224 27.6131 18.9369L22.043 13.3672C22.0288 13.3561 22.0153 13.344 22.0027 13.3311L20.4323 11.7608C20.1728 11.494 19.8629 11.2814 19.5205 11.1354C19.1781 10.9894 18.8101 10.9129 18.4379 10.9103C18.0657 10.9077 17.6967 10.9791 17.3523 11.1203C17.0079 11.2615 16.695 11.4698 16.4318 11.7329C16.1686 11.9961 15.9603 12.3089 15.819 12.6533C15.6777 12.9976 15.6062 13.3666 15.6087 13.7388C15.6112 14.111 15.6876 14.479 15.8336 14.8214C15.9795 15.1639 16.192 15.4739 16.4588 15.7335L20.2378 19.5121C20.3034 19.5776 20.348 19.6611 20.3661 19.752C20.3841 19.843 20.3749 19.9372 20.3394 20.0228C20.3039 20.1085 20.2438 20.1817 20.1668 20.2332C20.0897 20.2847 19.9991 20.3122 19.9064 20.3122Z" fill="#FBBB00"/>
<path d="M27.3084 18.4373C27.2737 18.4374 27.2392 18.4336 27.2053 18.4261L23.0194 17.4886C22.898 17.4613 22.7925 17.387 22.7259 17.282C22.6594 17.1769 22.6373 17.0497 22.6645 16.9284C22.6917 16.8071 22.7661 16.7015 22.8711 16.635C22.9762 16.5684 23.1033 16.5463 23.2247 16.5736L27.4106 17.5111C27.5233 17.5362 27.6227 17.602 27.6899 17.6959C27.757 17.7898 27.7871 17.9052 27.7745 18.02C27.7618 18.1347 27.7072 18.2407 27.6213 18.3177C27.5353 18.3948 27.4239 18.4373 27.3084 18.4373ZM22.6481 20.3498C22.5851 20.3499 22.5227 20.3372 22.4647 20.3125C22.4067 20.2879 22.3543 20.2518 22.3106 20.2064C19.885 17.6946 17.5188 15.1261 15.2142 12.5029C15.1721 12.4569 15.1396 12.403 15.1187 12.3443C15.0977 12.2856 15.0886 12.2233 15.092 12.161C15.0954 12.0988 15.1112 12.0378 15.1384 11.9817C15.1656 11.9257 15.2038 11.8756 15.2506 11.8344C15.2975 11.7933 15.352 11.7619 15.4111 11.7421C15.4703 11.7223 15.5327 11.7144 15.5949 11.7191C15.6571 11.7237 15.7177 11.7407 15.7732 11.769C15.8287 11.7974 15.8781 11.8365 15.9183 11.8842C18.2136 14.4965 20.5702 17.0544 22.9861 19.5557C23.0499 19.622 23.0929 19.7055 23.1096 19.796C23.1263 19.8864 23.116 19.9798 23.08 20.0644C23.044 20.1491 22.9839 20.2213 22.9072 20.272C22.8305 20.3228 22.7401 20.3498 22.6481 20.3498ZM22.8028 13.9326C22.7702 13.9326 22.7377 13.9291 22.7058 13.9223L18.8067 13.0992C18.746 13.087 18.6882 13.063 18.6368 13.0284C18.5854 12.9937 18.5414 12.9493 18.5073 12.8976C18.4732 12.8459 18.4497 12.7879 18.4381 12.727C18.4266 12.6661 18.4272 12.6036 18.4399 12.543C18.4527 12.4823 18.4774 12.4248 18.5125 12.3738C18.5476 12.3228 18.5925 12.2792 18.6446 12.2456C18.6966 12.212 18.7548 12.1891 18.8158 12.1782C18.8768 12.1672 18.9393 12.1685 18.9998 12.1818L22.8989 13.005C23.0126 13.0286 23.1134 13.0936 23.1819 13.1874C23.2503 13.2811 23.2816 13.3969 23.2696 13.5124C23.2576 13.6279 23.2031 13.7348 23.1168 13.8124C23.0305 13.89 22.9189 13.9329 22.8028 13.9326Z" fill="#FBBB00"/>
<path d="M25.9009 22.0948C25.8507 22.0947 25.8008 22.0865 25.7533 22.0704C25.6951 22.0512 25.6413 22.0207 25.5949 21.9807C25.5486 21.9407 25.5105 21.8919 25.4831 21.8372C25.4556 21.7824 25.4392 21.7228 25.4348 21.6617C25.4304 21.6006 25.4381 21.5393 25.4575 21.4812C25.4713 21.4425 25.4879 21.4049 25.5072 21.3687L25.5062 21.3682C25.9938 20.4603 26.561 19.5976 27.2012 18.7901C27.2289 18.7521 27.2701 18.7005 27.3123 18.6476L27.579 18.3138C27.8574 17.974 28.1462 17.6427 28.4448 17.3205C28.4558 17.3056 28.4675 17.2912 28.48 17.2774C28.6939 17.0487 28.9115 16.8234 29.1325 16.6015C29.6338 16.1004 30.1571 15.6218 30.7009 15.1671C31.1894 14.7561 31.6963 14.3676 32.2201 14.0027C32.9132 13.5171 33.6438 13.0873 34.405 12.7174C36.6301 11.6538 38.3814 11.5929 39.3348 12.5468C39.5986 12.8149 39.7883 13.1468 39.8856 13.5101C40.427 15.3673 39.0362 18.5491 36.3409 21.6115C36.2581 21.702 36.1431 21.7564 36.0206 21.7631C35.898 21.7698 35.7778 21.7282 35.6856 21.6472C35.5935 21.5662 35.5367 21.4523 35.5276 21.3299C35.5185 21.2075 35.5577 21.0865 35.6368 20.9927C38.049 18.2515 39.4253 15.281 38.9847 13.7688C38.931 13.5581 38.823 13.3651 38.6715 13.2091C38.0392 12.5773 36.595 12.709 34.809 13.564C34.093 13.9118 33.4058 14.3162 32.754 14.7734C32.2538 15.1221 31.7695 15.4932 31.3028 15.8857C30.5599 16.5071 29.8567 17.1743 29.1972 17.8835C29.1873 17.8969 29.1767 17.9098 29.1653 17.9219C28.8692 18.2402 28.5832 18.5675 28.3075 18.9035L28.0431 19.2344C28.0117 19.2743 27.9798 19.3127 27.9508 19.3535C27.3414 20.1209 26.8014 20.9409 26.3368 21.8037C26.3008 21.8896 26.2402 21.9629 26.1626 22.0146C26.0851 22.0663 25.9941 22.0945 25.9009 22.0948Z" fill="#FBBB00"/>
<path d="M34.3294 21.2969C34.2369 21.297 34.1464 21.2696 34.0694 21.2184C33.9924 21.1672 33.9322 21.0943 33.8966 21.0089C33.8609 20.9236 33.8512 20.8296 33.8689 20.7388C33.8865 20.648 33.9306 20.5644 33.9957 20.4986C36.0358 18.426 37.7302 16.0394 39.0141 13.4298L39.015 13.4284C39.0604 13.332 39.1373 13.2538 39.233 13.2069C39.3287 13.16 39.4375 13.1471 39.5416 13.1704C39.6456 13.1937 39.7386 13.2517 39.8052 13.3349C39.8718 13.4181 39.9081 13.5215 39.908 13.6281C39.9075 13.7033 39.8893 13.7773 39.855 13.8442V13.8452C38.5267 16.5445 36.7738 19.0133 34.6632 21.1572C34.6196 21.2014 34.5676 21.2366 34.5103 21.2605C34.453 21.2845 34.3915 21.2969 34.3294 21.2969ZM27.8096 23.5938C27.6853 23.5938 27.566 23.5444 27.4781 23.4565C27.3902 23.3685 27.3408 23.2493 27.3408 23.125V18.7764C27.3408 18.6521 27.3902 18.5329 27.4781 18.445C27.566 18.357 27.6853 18.3077 27.8096 18.3077C27.9339 18.3077 28.0531 18.357 28.141 18.445C28.2289 18.5329 28.2783 18.6521 28.2783 18.7764V23.125C28.2783 23.2493 28.2289 23.3685 28.141 23.4565C28.0531 23.5444 27.9339 23.5938 27.8096 23.5938ZM31.0908 20.3125C30.9665 20.3125 30.8473 20.2631 30.7594 20.1752C30.6715 20.0873 30.6221 19.9681 30.6221 19.8438V15.4516C30.6221 15.3272 30.6715 15.208 30.7594 15.1201C30.8473 15.0322 30.9665 14.9828 31.0908 14.9828C31.2151 14.9828 31.3344 15.0322 31.4223 15.1201C31.5102 15.208 31.5596 15.3272 31.5596 15.4516V19.8438C31.5596 19.9681 31.5102 20.0873 31.4223 20.1752C31.3344 20.2631 31.2151 20.3125 31.0908 20.3125ZM34.3721 16.5625C34.2478 16.5625 34.1285 16.5131 34.0406 16.4252C33.9527 16.3373 33.9033 16.2181 33.9033 16.0938V13.2578C33.9033 13.1335 33.9527 13.0143 34.0406 12.9264C34.1285 12.8384 34.2478 12.7891 34.3721 12.7891C34.4964 12.7891 34.6156 12.8384 34.7035 12.9264C34.7914 13.0143 34.8408 13.1335 34.8408 13.2578V16.0938C34.8408 16.2181 34.7914 16.3373 34.7035 16.4252C34.6156 16.5131 34.4964 16.5625 34.3721 16.5625Z" fill="#FBBB00"/>
<path d="M38.0664 27.3436C37.967 27.3435 37.8701 27.3119 37.7898 27.2532C37.7095 27.1945 37.65 27.1118 37.6198 27.017C37.5896 26.9222 37.5904 26.8203 37.622 26.7259C37.6536 26.6316 37.7143 26.5498 37.7955 26.4923C38.0164 26.3344 38.2005 26.1305 38.335 25.8946C38.4615 25.6677 38.545 25.4193 38.5811 25.162C38.7091 24.2179 37.6328 22.7442 36.2303 21.9431C35.8386 21.7223 35.4207 21.5517 34.9863 21.4354C34.2594 21.2379 33.4986 21.198 32.755 21.3182C32.1583 21.421 31.5853 21.6313 31.0638 21.9389C30.651 22.1835 30.2763 22.4871 29.9514 22.8403C29.56 23.2706 28.435 24.5076 28.81 25.5811C28.9462 25.9459 29.1848 26.2636 29.4972 26.4961C29.5977 26.5694 29.6649 26.6797 29.684 26.8025C29.7032 26.9254 29.6727 27.0509 29.5994 27.1514C29.526 27.2518 29.4158 27.319 29.2929 27.3382C29.17 27.3573 29.0445 27.3269 28.9441 27.2536C28.4785 26.9082 28.1242 26.4342 27.9246 25.89C27.3658 24.2896 28.773 22.7423 29.2361 22.2332C30.1185 21.2614 31.3015 20.6139 32.5956 20.3943C34.0058 20.1677 35.4511 20.4267 36.6949 21.1289C38.2155 21.9975 39.7188 23.7501 39.5102 25.2881C39.4578 25.6635 39.3361 26.0259 39.1511 26.3568C38.9484 26.7127 38.6703 27.02 38.3364 27.2573C38.2576 27.3134 38.1632 27.3435 38.0664 27.3436Z" fill="#FBBB00"/>
</g>
<defs>
<clipPath id="clip0_882_15289">
<rect width="30" height="30" fill="white" transform="translate(10 10)"/>
</clipPath>
</defs>
</svg>
