<svg width="50" height="50" viewBox="0 0 50 50" fill="none" xmlns="http://www.w3.org/2000/svg">
<g id="Juices/icon">
<circle id="Ellipse 16" cx="25" cy="25" r="25" fill="#D2FFD0"/>
<g id="Group">
<path id="Vector" d="M25.4587 29.355H17.7291C16.9302 29.355 16.2798 30.0064 16.2798 30.8066V34.6776C16.2798 35.478 16.9302 36.1292 17.7291 36.1292H25.4587C26.2576 36.1292 26.908 35.478 26.908 34.6776V30.8066C26.908 30.0064 26.2576 29.355 25.4587 29.355ZM25.9418 34.6776C25.9418 34.9447 25.7247 35.1614 25.4587 35.1614H17.7291C17.463 35.1614 17.246 34.9447 17.246 34.6776V30.8066C17.246 30.5396 17.463 30.3227 17.7291 30.3227H25.4587C25.7247 30.3227 25.9418 30.5396 25.9418 30.8066V34.6776Z" fill="#518EF8"/>
<path id="Vector_2" d="M18.2124 31.29H24.9758V32.2578H18.2124V31.29ZM18.2124 33.2255H21.111V34.1933H18.2124V33.2255ZM22.0772 33.2255H24.9758V34.1933H22.0772V33.2255Z" fill="#518EF8"/>
<path id="Vector_3" d="M31.2195 23.5484C31.1622 23.0661 31.0278 22.5948 30.8365 22.148C31.0959 21.8857 31.2563 21.5264 31.2563 21.129V19.1935C31.2563 18.8205 31.111 18.4833 30.8796 18.2258C31.1115 17.9685 31.2563 17.6311 31.2563 17.2581V15.3226C31.2563 14.5224 30.606 13.871 29.807 13.871H28.3577V12.9032C28.8906 12.9032 29.3239 12.4692 29.3239 11.9355V10.9677C29.3239 10.434 28.8906 10 28.3577 10H24.493C23.9601 10 23.5268 10.434 23.5268 10.9677V11.9355C23.5268 12.4692 23.9601 12.9032 24.493 12.9032V13.871H23.0437C22.2447 13.871 21.5944 14.5224 21.5944 15.3226V17.2581C21.5944 17.6311 21.7397 17.9685 21.9711 18.2258C21.7392 18.4833 21.5944 18.8205 21.5944 19.1935V21.129C21.5944 21.5264 21.7548 21.8857 22.0138 22.148C21.7437 22.7786 21.5944 23.4614 21.5944 24.1466V25.4839H20.6282V20.9379C20.6282 19.6833 20.0059 18.5185 18.964 17.8227C18.2726 17.3613 17.8334 16.6209 17.748 15.804C18.2722 15.7948 18.6958 15.3663 18.6958 14.8387V13.871C18.6958 13.3372 18.2624 12.9032 17.7296 12.9032H14.831C14.2981 12.9032 13.8648 13.3372 13.8648 13.871V14.8387C13.8648 15.3663 14.2885 15.7948 14.8131 15.8045C14.7277 16.6213 14.2885 17.3617 13.597 17.8232C12.5547 18.5185 11.9324 19.6838 11.9324 20.9378V25.4838H11.4493C10.6504 25.4838 10 26.1352 10 26.9354C10 27.5864 10.4324 28.1317 11.0228 28.3155L12.4155 37.617V40H38.4599L40 23.5484H31.2195ZM38.5776 28.3722C37.6072 28.3034 36.7051 28.0024 35.7573 27.6865C34.6515 27.3173 33.5086 26.9355 32.2225 26.9355C30.5911 26.9355 29.3765 27.3522 28.6993 27.6608L28.4052 24.5161H38.9385L38.5776 28.3722ZM13.3145 37.0968L12.0102 28.3871H27.7968L28.6123 37.0968H13.3145ZM24.493 10.9677H28.3577L28.3582 11.9355H24.493V10.9677ZM25.4592 12.9032H27.3916V13.871H25.4592V12.9032ZM22.5606 15.3226C22.5606 15.0555 22.7776 14.8387 23.0437 14.8387H29.807C30.0731 14.8387 30.2901 15.0555 30.2901 15.3226V17.2581C30.2901 17.5253 30.0731 17.7419 29.807 17.7419H28.3577V18.7097H29.807C30.0731 18.7097 30.2901 18.9265 30.2901 19.1935V21.129C30.2901 21.3962 30.0731 21.6129 29.807 21.6129H23.0437C22.7776 21.6129 22.5606 21.3962 22.5606 21.129V19.1935C22.5606 18.9265 22.7776 18.7097 23.0437 18.7097H27.3916V17.7419H23.0437C22.7776 17.7419 22.5606 17.5253 22.5606 17.2581V15.3226ZM22.5606 24.1466C22.5606 23.6046 22.6759 23.0645 22.8851 22.5643C22.9377 22.5705 22.9896 22.5806 23.0437 22.5806H29.807C29.8611 22.5806 29.913 22.5705 29.9656 22.5648C30.0976 22.8799 30.1899 23.2104 30.2403 23.5484H27.3441L27.5253 25.4839H22.5606V24.1466ZM13.072 19.977C14.9228 21.55 17.2447 22.4516 19.662 22.5589V23.5281C17.2866 23.4269 15.0053 22.5929 13.1951 21.1359L12.901 20.8989C12.9053 20.5841 12.9631 20.2723 13.072 19.977ZM14.831 13.871H17.7296L17.7301 14.8387H14.831V13.871ZM14.133 18.6283C15.0928 17.9878 15.6904 16.9471 15.7792 15.8064H16.7818C16.8707 16.9471 17.4678 17.9878 18.428 18.6283C18.8081 18.8814 19.1197 19.2247 19.3351 19.6276C19.5505 20.0306 19.6629 20.4807 19.6625 20.9378V21.5911C17.4586 21.4838 15.3431 20.6538 13.661 19.2104L13.5697 19.132C13.732 18.9423 13.9188 18.771 14.133 18.6283ZM12.8986 22.117C14.8281 23.5667 17.1972 24.3991 19.662 24.4957V25.4838H12.8986V22.117ZM11.4493 26.4516H27.6156L27.7065 27.4193H11.4493C11.1832 27.4193 10.9662 27.2026 10.9662 26.9354C10.9662 26.6684 11.1832 26.4516 11.4493 26.4516ZM13.3817 39.0322V38.0645H28.7026L28.7934 39.0322H13.3817ZM37.5795 39.0322H29.7642L28.796 28.6911C29.2211 28.4607 30.4331 27.9032 32.2225 27.9032C33.352 27.9032 34.372 28.2438 35.4516 28.6039C36.4119 28.9247 37.4015 29.2541 38.4879 29.3349L37.5795 39.0322Z" fill="#518EF8"/>
<path id="Vector_4" d="M36.57 33.7098H34.6376C34.1048 33.7098 33.6714 34.1438 33.6714 34.6775V36.613C33.6714 37.1467 34.1048 37.5808 34.6376 37.5808H36.57C37.1029 37.5808 37.5362 37.1467 37.5362 36.613V34.6775C37.5362 34.1438 37.1029 33.7098 36.57 33.7098ZM34.6376 36.613V34.6775H36.57L36.5705 36.613H34.6376ZM33.6714 29.8388C33.6714 29.3051 33.2381 28.8711 32.7052 28.8711H30.7728C30.24 28.8711 29.8066 29.3051 29.8066 29.8388V31.7743C29.8066 32.308 30.24 32.7421 30.7728 32.7421H32.7052C33.2381 32.7421 33.6714 32.308 33.6714 31.7743V29.8388ZM30.7728 31.7743V29.8388H32.7052L32.7057 31.7743H30.7728ZM36.0869 31.2904H37.0531V32.2582H36.0869V31.2904ZM30.7728 35.6453H31.739V36.613H30.7728V35.6453Z" fill="#518EF8"/>
</g>
</g>
</svg>
