<svg width="50" height="50" viewBox="0 0 50 50" fill="none" xmlns="http://www.w3.org/2000/svg">
<circle cx="25" cy="25" r="25" fill="#FFE6C2"/>
<g clip-path="url(#clip0_882_15292)">
<path d="M26.4516 16.7738H27.4193V18.7093H26.4516V16.7738ZM23.5484 16.29C23.5484 16.0229 23.7652 15.8061 24.0322 15.8061C24.2993 15.8061 24.5161 16.0229 24.5161 16.29V16.7738H25.4838V16.29C25.4838 15.4896 24.8326 14.8384 24.0322 14.8384C23.2319 14.8384 22.5806 15.4896 22.5806 16.29V16.7738H23.5484V16.29ZM29.3547 16.29C29.3547 16.0229 29.5715 15.8061 29.8386 15.8061C30.1057 15.8061 30.3225 16.0229 30.3225 16.29V16.7738H31.2902V16.29C31.2902 15.4896 30.6389 14.8384 29.8386 14.8384C29.0383 14.8384 28.387 15.4896 28.387 16.29V16.7738H29.3547V16.29ZM25.3421 19.5353L24.6579 18.8511L23.2063 20.3027L23.8904 20.9869L24.2819 20.5954C25.0135 21.2505 25.9455 21.6125 26.9354 21.6125C27.9254 21.6125 28.8573 21.2505 29.5889 20.5954L29.9804 20.9869L30.6646 20.3027L29.213 18.8511L28.5288 19.5353L28.9047 19.9112C28.357 20.3844 27.6665 20.6447 26.9354 20.6447C26.2043 20.6447 25.5138 20.3844 24.9661 19.9112L25.3421 19.5353ZM15.3227 19.6771C14.5224 19.6771 13.8711 20.3283 13.8711 21.1287C13.8711 21.929 14.5224 22.5803 15.3227 22.5803C16.123 22.5803 16.7743 21.929 16.7743 21.1287C16.7743 20.3283 16.123 19.6771 15.3227 19.6771ZM15.3227 21.6125C15.0556 21.6125 14.8388 21.3957 14.8388 21.1286C14.8388 20.8615 15.0556 20.6447 15.3227 20.6447C15.5898 20.6447 15.8066 20.8615 15.8066 21.1286C15.8066 21.3957 15.5898 21.6125 15.3227 21.6125Z" fill="#596A73"/>
<path d="M39.9624 34.3509C39.8753 33.973 39.6464 33.6517 39.3179 33.4461C39.0871 33.3015 38.8203 33.2249 38.548 33.225C38.0434 33.225 37.5832 33.4804 37.3171 33.9082C36.9873 34.4344 36.5875 34.9135 36.1288 35.3322V32.7445C36.1288 32.3724 36.0664 32.0153 35.955 31.68L37.4695 28.3491C38.3588 28.1749 39.0319 27.391 39.0319 26.4514C39.0319 25.384 38.1638 24.5159 37.0964 24.5159C36.029 24.5159 35.161 25.384 35.161 26.4514C35.161 26.8094 35.265 27.1404 35.4353 27.4283L33.4364 29.4272C33.36 29.4112 33.2821 29.401 33.2042 29.3899C33.1562 28.8649 32.9976 28.3554 32.7252 27.901L31.1763 25.3196C30.8729 24.8145 30.4505 24.4027 29.9618 24.1008C31.7357 23.3542 33.0208 21.6728 33.2018 19.6768H33.7094C35.0434 19.6768 36.1287 18.5915 36.1287 17.2575C36.1287 15.9235 35.0434 14.8381 33.7094 14.8381H33.2008C32.9556 12.1299 30.6746 10 27.9031 10H25.9676C23.1961 10 20.9151 12.1299 20.6698 14.8386H20.1613C19.374 14.8386 18.6801 15.2223 18.2384 15.8063H16.706C16.511 14.9252 15.8752 14.1903 14.9921 13.8961L14.4318 13.7088L14.1681 15.8175C13.1771 15.8731 12.2437 16.3628 11.6452 17.1612L10.8129 18.2712L12.0985 19.5568L10.8265 20.6702C10.5669 20.8972 10.3588 21.1771 10.2163 21.4912C10.0738 21.8052 10 22.1461 10 22.491V23.0644C10 24.3984 11.0853 25.4837 12.4193 25.4837H14.9572L15.2315 26.4437C15.6131 27.7777 15.8066 29.1584 15.8063 30.5459C15.8063 31.9602 15.5959 33.3542 15.2025 34.7062C14.9915 34.457 14.7951 34.1923 14.6185 33.9097C14.3519 33.481 13.8917 33.2255 13.3871 33.2255C13.1149 33.2254 12.8483 33.3021 12.6177 33.4466C12.2887 33.6523 12.0599 33.9736 11.9727 34.3514C11.8857 34.7288 11.9509 35.1184 12.1566 35.4474C13.9383 38.2983 17.0089 40 20.3713 40L31.564 39.9995C34.9258 39.9995 37.9969 38.2973 39.7785 35.4469C39.9842 35.1178 40.0495 34.7283 39.9624 34.3509ZM37.0964 25.4836C37.6302 25.4836 38.0642 25.9176 38.0642 26.4514C38.0642 26.985 37.6302 27.4191 37.0964 27.4191C36.5628 27.4191 36.1287 26.9851 36.1287 26.4514C36.1287 25.9176 36.5628 25.4836 37.0964 25.4836ZM36.1195 28.1124C36.2226 28.1737 36.3313 28.2249 36.4442 28.2654L35.3748 30.6174C35.1106 30.2913 34.7884 30.0167 34.4245 29.8074L36.1195 28.1124ZM33.1622 30.3653C34.2958 30.5666 35.161 31.5542 35.161 32.7445V36.0686C34.5498 36.4509 33.8809 36.7321 33.1801 36.9013C32.972 35.2935 32.0338 33.9067 30.7158 33.0769C31.9612 32.7043 32.9168 31.6596 33.1622 30.3653ZM16.1626 26.1784L15.9589 25.4657C16.9851 25.3742 17.8701 24.6934 18.2006 23.7016L17.2832 23.3953C17.1745 23.7217 16.9658 24.0057 16.6867 24.2068C16.4075 24.408 16.0721 24.5161 15.7281 24.5159H13.8711V24.3819C13.8711 22.9927 13.2885 21.6587 12.268 20.6949L14.5368 18.7096H16.5976C16.8575 18.7096 17.1127 18.7794 17.3364 18.9117C17.5602 19.044 17.7443 19.2338 17.8697 19.4615L21.1817 25.4837H20.6451C19.5777 25.4837 18.7097 26.3518 18.7097 27.4192C18.7097 28.4866 19.5777 29.3546 20.6451 29.3546H23.8309C23.6513 29.6793 23.5483 30.048 23.5483 30.4366V32.282C21.0806 32.5094 19.0716 34.4522 18.7551 36.902C17.7293 36.6528 16.7819 36.1699 15.9821 35.4891C16.5057 33.8914 16.7742 32.2308 16.7742 30.546C16.7742 29.0676 16.5681 27.5981 16.1626 26.1784ZM20.6698 19.6773C20.904 22.2582 22.9865 24.3084 25.5805 24.4961L24.3462 25.4836H22.2854L18.8887 19.3066C19.2593 19.5374 19.6929 19.6773 20.1612 19.6773H20.6698ZM21.6128 28.3868V26.4514H22.5805V28.3868H21.6128V28.3868ZM20.6451 28.3868C20.1114 28.3868 19.6774 27.9528 19.6774 27.419C19.6774 26.8853 20.1114 26.4513 20.6451 26.4513V28.3868ZM23.7771 34.378L24.1463 34.1931H26.4515V34.677C26.4515 34.9441 26.2347 35.1609 25.9676 35.1609H23.9615C23.7341 35.1609 23.5483 34.9751 23.5483 34.7477C23.548 34.6708 23.5693 34.5954 23.6097 34.53C23.6502 34.4647 23.7082 34.412 23.7771 34.378ZM23.5483 33.2549V33.4103L23.3441 33.5123C22.8728 33.748 22.5805 34.2212 22.5805 34.7477C22.5805 35.5093 23.1999 36.1286 23.9615 36.1286H25.9676C26.7679 36.1286 27.4192 35.4773 27.4192 34.677V33.2254H27.903C30.1124 33.2254 31.967 34.9097 32.2264 37.061C32.0076 37.0823 31.787 37.0963 31.564 37.0963L20.3707 37.0968C20.1477 37.0968 19.927 37.0828 19.7083 37.0615C19.9488 35.0695 21.5577 33.4795 23.5483 33.2549ZM32.2322 29.3545C32.2486 29.4721 32.2578 29.5906 32.2578 29.7102C32.2578 31.1153 31.1154 32.2577 29.7103 32.2577H29.3546V31.7738C29.3546 30.4398 30.44 29.3545 31.774 29.3545H32.2322ZM31.8872 28.3868H31.774C29.9068 28.3868 28.3869 29.9066 28.3869 31.7738V32.2577H27.4192V31.6388C27.4192 30.9411 27.0311 30.3136 26.4069 30.001L26.1838 29.8897L25.7508 30.7553L25.9738 30.8666C26.1177 30.9378 26.2387 31.0479 26.3231 31.1844C26.4075 31.3209 26.452 31.4783 26.4514 31.6388V33.2255H24.516V30.4364C24.516 29.9845 24.7574 29.582 25.1421 29.3545H25.2887C25.836 29.3545 26.3726 29.1658 26.8003 28.8242L28.6893 27.313L28.0845 26.5568L26.1955 28.0679C25.9382 28.274 25.6184 28.3864 25.2888 28.3868H23.5483V26.4514H24.3157L25.1416 27.2773L25.8258 26.5931L25.2404 26.0076L26.3707 25.1033C26.8444 24.7249 27.4386 24.5159 28.0454 24.5159H28.0468C28.9836 24.5159 29.8642 25.0148 30.3462 25.818L31.8872 28.3868ZM35.161 17.2579C35.161 18.0583 34.5098 18.7096 33.7094 18.7096H33.2256V18.0007L34.4618 17.1767L33.9252 16.3715L33.2256 16.838V15.8063H33.7094C34.5097 15.8063 35.161 16.4576 35.161 17.2579ZM21.6128 15.3225C21.6128 13.4045 22.8607 11.7748 24.5866 11.1961L23.5996 13.1707L24.4652 13.6038L25.7779 10.9779C25.8413 10.9745 25.9037 10.9677 25.9676 10.9677H26.4514V13.8709H27.4192V10.9677H27.903C27.9669 10.9677 28.0293 10.9745 28.0927 10.9774L29.4054 13.6033L30.271 13.1703L29.284 11.1956C31.0099 11.7748 32.2578 13.4044 32.2578 15.3225V19.1934C32.2578 21.5948 30.3044 23.5481 27.903 23.5481H25.9676C23.5662 23.5481 21.6128 21.5948 21.6128 19.1934V15.3225ZM20.1613 15.8063H20.6451V16.8379L19.9459 16.3715L19.4093 17.1766L20.6451 18.0006V18.7095H20.1613C19.3609 18.7095 18.7097 18.0582 18.7097 17.2579C18.7097 16.4576 19.3609 15.8063 20.1613 15.8063ZM17.9127 18.1362C17.5755 17.917 17.1855 17.7844 16.7742 17.7539V16.7741H17.7908C17.7583 16.9333 17.7419 17.0954 17.7419 17.2579C17.7419 17.5686 17.8058 17.8633 17.9127 18.1362ZM15.2307 15.1207C15.4114 15.2745 15.5565 15.4658 15.6559 15.6813C15.7554 15.8968 15.8067 16.1313 15.8065 16.3686V17.7418H14.9031L15.2307 15.1207ZM12.0904 18.1802L12.4194 17.7418C12.8118 17.2192 13.4045 16.8796 14.0461 16.7954L13.8976 17.9823L12.8283 18.9181L12.0904 18.1802ZM10.9679 23.0643V22.4909C10.9678 22.284 11.012 22.0795 11.0975 21.8911C11.1829 21.7026 11.3077 21.5347 11.4633 21.3984L11.534 21.3369C12.3948 22.1072 12.9033 23.2186 12.9033 24.3818V24.5158H12.4195C11.6191 24.5159 10.9679 23.8646 10.9679 23.0643ZM38.9584 34.9335C37.3544 37.4999 34.59 39.0318 31.564 39.0318L20.3707 39.0323C17.3447 39.0323 14.5803 37.5003 12.9769 34.9339C12.9429 34.8802 12.92 34.8201 12.9095 34.7574C12.8991 34.6947 12.9012 34.6305 12.9159 34.5686C12.9454 34.4404 13.0199 34.3363 13.1312 34.2667C13.208 34.2187 13.2967 34.1932 13.3872 34.1931C13.5551 34.1931 13.7085 34.2783 13.798 34.422C15.2239 36.7029 17.681 38.0645 20.3713 38.0645L31.564 38.0641C34.2542 38.0641 36.7113 36.7025 38.1377 34.4206C38.2746 34.2009 38.5848 34.1288 38.804 34.2667C38.9148 34.3364 38.9898 34.4404 39.0188 34.5687C39.0335 34.6304 39.0357 34.6945 39.0253 34.7571C39.0149 34.8198 38.9922 34.8797 38.9584 34.9335Z" fill="#596A73"/>
</g>
<defs>
<clipPath id="clip0_882_15292">
<rect width="30" height="30" fill="white" transform="translate(10 10)"/>
</clipPath>
</defs>
</svg>
